<svg width="32" height="32" viewBox="0 0 32 32" fill="none" xmlns="http://www.w3.org/2000/svg">
<g clip-path="url(#clip0_1_17)">
<rect width="32" height="32" fill="white"/>
<g clip-path="url(#clip1_1_17)">
<mask id="mask0_1_17" style="mask-type:luminance" maskUnits="userSpaceOnUse" x="1" y="0" width="30" height="32">
<path d="M30.4338 0H1.6593V32H30.4338V0Z" fill="white"/>
</mask>
<g mask="url(#mask0_1_17)">
<path d="M14.0824 31.4421L11.1462 29.7472V24.0961L16.0466 26.801L20.9469 24.0961V29.7472L18.0108 31.4421C17.4137 31.7873 16.7363 31.969 16.0466 31.9688C15.357 31.969 14.6795 31.7873 14.0824 31.4421ZM26.6231 10.644C26.6232 10.4954 26.5841 10.3494 26.5098 10.2206C26.4355 10.0919 26.3286 9.98501 26.1997 9.91072C26.071 9.83642 25.925 9.79734 25.7764 9.79741C25.6278 9.79747 25.4818 9.83667 25.353 9.91108L16.0537 15.1579L6.73981 9.91121C6.61114 9.83684 6.46514 9.79767 6.31652 9.79762C6.1679 9.79757 6.02189 9.83666 5.89316 9.91095C5.76444 9.98523 5.65755 10.0921 5.58322 10.2208C5.5089 10.3495 5.46979 10.4955 5.46979 10.6441V26.4704L3.6546 25.4225C3.05768 25.0775 2.56199 24.5816 2.21726 23.9846C1.87253 23.3875 1.69089 22.7103 1.69055 22.0209V9.97913C1.69087 9.28965 1.87253 8.61237 2.21729 8.01528C2.56206 7.41818 3.05781 6.92225 3.65477 6.57728L14.0825 0.557786C14.6795 0.212735 15.357 0.0310669 16.0466 0.0310669C16.7363 0.0310669 17.4137 0.212735 18.0108 0.557786L28.4386 6.57728C29.0355 6.92218 29.5314 7.4181 29.8762 8.01521C30.221 8.61233 30.4025 9.28964 30.4028 9.97913V22.0209C30.4024 22.7103 30.2207 23.3875 29.876 23.9846C29.5312 24.5816 29.0353 25.0775 28.4383 25.4222L26.6231 26.4702V10.644Z" fill="#44C9F6"/>
</g>
</g>
</g>
<defs>
<clipPath id="clip0_1_17">
<rect width="32" height="32" fill="white"/>
</clipPath>
<clipPath id="clip1_1_17">
<rect width="28.8" height="32" fill="white" transform="translate(1.6593)"/>
</clipPath>
</defs>
</svg>
